<svg id="svg" version="1.1" xmlns="http://www.w3.org/2000/svg" xmlns:xlink="http://www.w3.org/1999/xlink" width="400" height="400" viewBox="0, 0, 400,400"><g id="svgg"><path id="path0" d="M84.275 102.658 C 84.124 102.810,84.000 143.126,84.000 192.250 L 84.000 281.567 85.100 282.772 C 86.273 284.058,88.280 286.063,90.830 288.500 C 91.694 289.325,92.400 290.150,92.400 290.332 C 92.400 290.515,92.850 290.906,93.400 291.200 C 93.950 291.494,94.400 291.980,94.400 292.280 C 94.400 292.580,94.715 292.945,95.100 293.091 C 95.876 293.386,98.800 296.382,98.800 296.882 C 98.800 297.057,99.074 297.200,99.409 297.200 C 99.743 297.200,100.214 297.632,100.454 298.159 C 100.721 298.746,101.359 299.212,102.096 299.359 C 103.675 299.675,152.544 299.673,153.367 299.357 C 154.305 298.997,154.312 228.650,153.374 227.400 C 153.044 226.960,149.255 223.063,144.954 218.739 C 138.498 212.250,137.071 210.610,136.776 209.339 C 136.303 207.302,136.298 194.321,136.769 193.081 C 137.685 190.672,137.169 190.208,168.567 221.643 C 185.085 238.182,199.124 252.036,199.764 252.431 L 200.929 253.150 202.862 251.175 C 203.926 250.089,204.948 249.200,205.134 249.200 C 205.320 249.200,205.677 248.750,205.927 248.200 C 206.178 247.650,206.657 247.200,206.991 247.200 C 207.326 247.200,207.600 247.047,207.600 246.859 C 207.600 246.672,208.275 245.868,209.100 245.073 C 213.411 240.917,214.000 240.315,214.000 240.065 C 214.000 239.915,214.728 239.165,215.618 238.397 C 216.508 237.628,217.903 236.296,218.718 235.435 C 219.533 234.574,220.958 233.134,221.885 232.235 C 222.812 231.336,223.774 230.392,224.023 230.138 C 224.613 229.537,229.572 224.578,230.023 224.138 C 230.214 223.952,231.158 222.990,232.120 222.000 C 233.082 221.010,234.574 219.531,235.435 218.714 C 236.296 217.897,237.630 216.510,238.400 215.632 C 239.170 214.755,240.025 214.029,240.300 214.018 C 240.575 214.008,240.800 213.811,240.800 213.581 C 240.800 213.350,241.295 212.703,241.900 212.142 L 243.000 211.123 243.115 168.662 C 243.179 145.308,243.124 125.607,242.994 124.882 L 242.757 123.563 240.849 125.482 C 239.800 126.537,238.235 128.048,237.371 128.839 C 236.507 129.631,235.071 131.071,234.180 132.039 C 233.289 133.008,231.849 134.454,230.980 135.253 C 230.111 136.053,228.281 137.853,226.914 139.253 C 225.547 140.654,224.197 142.012,223.914 142.272 C 223.631 142.531,218.458 147.706,212.419 153.772 C 201.570 164.667,200.709 165.363,199.234 164.430 C 198.923 164.233,184.837 150.241,167.931 133.336 L 137.193 102.600 110.871 102.492 C 96.395 102.432,84.426 102.507,84.275 102.658 M265.389 102.900 C 265.287 103.175,265.158 127.700,265.102 157.400 C 264.994 214.411,265.064 212.579,262.966 213.158 C 261.099 213.674,260.310 214.342,252.898 221.683 L 246.396 228.123 246.498 263.762 L 246.600 299.400 272.845 299.503 L 299.090 299.606 307.590 291.103 C 312.265 286.426,316.249 282.183,316.445 281.674 C 316.648 281.144,316.800 242.678,316.800 191.821 L 316.800 102.893 315.900 102.652 C 313.972 102.135,265.585 102.373,265.389 102.900 " stroke="none" fill="#070707" fill-rule="evenodd"></path><path id="path1" d="M0.000 200.000 L 0.000 400.000 200.000 400.000 L 400.000 400.000 400.000 200.000 L 400.000 0.000 200.000 0.000 L 0.000 0.000 0.000 200.000 M138.174 101.201 C 139.068 101.642,140.340 102.633,141.000 103.404 C 141.660 104.175,142.894 105.479,143.742 106.303 C 144.590 107.126,146.075 108.566,147.042 109.502 C 148.009 110.439,148.800 111.371,148.800 111.575 C 148.800 111.779,149.151 112.057,149.580 112.194 C 150.008 112.330,150.470 112.792,150.606 113.220 C 150.743 113.649,151.068 114.000,151.330 114.000 C 151.592 114.000,152.435 114.739,153.203 115.642 C 153.972 116.546,155.304 117.941,156.165 118.742 C 157.026 119.544,158.492 120.984,159.423 121.943 C 160.353 122.901,161.269 123.843,161.457 124.036 C 161.646 124.229,163.015 125.555,164.500 126.982 C 165.985 128.409,167.200 129.750,167.200 129.961 C 167.200 130.173,167.571 130.464,168.024 130.608 C 168.478 130.752,169.047 131.304,169.289 131.835 C 169.530 132.366,169.911 132.800,170.134 132.800 C 170.357 132.800,171.674 134.015,173.061 135.500 C 174.448 136.985,175.747 138.354,175.949 138.543 C 177.351 139.855,180.037 142.520,181.282 143.835 C 182.097 144.696,183.492 146.028,184.382 146.797 C 185.272 147.565,186.000 148.336,186.000 148.510 C 186.000 148.923,188.677 151.600,189.090 151.600 C 189.264 151.600,190.035 152.323,190.803 153.206 C 191.572 154.089,192.894 155.484,193.742 156.306 C 194.590 157.128,196.075 158.566,197.042 159.502 C 198.009 160.439,198.800 161.372,198.800 161.576 C 198.800 161.780,199.294 162.004,199.897 162.073 C 200.871 162.186,203.327 159.868,221.696 141.500 C 233.082 130.115,242.568 120.800,242.776 120.800 C 244.417 120.800,244.400 120.299,244.400 167.417 L 244.400 212.256 241.948 214.928 C 240.600 216.398,239.271 217.600,238.995 217.600 C 238.719 217.600,238.396 217.973,238.276 218.430 C 238.157 218.886,237.686 219.357,237.230 219.476 C 236.773 219.596,236.400 219.874,236.400 220.096 C 236.400 220.615,220.606 236.400,220.086 236.400 C 219.870 236.400,219.596 236.773,219.476 237.230 C 219.357 237.686,218.886 238.157,218.430 238.276 C 217.973 238.396,217.597 238.697,217.593 238.947 C 217.585 239.529,208.218 248.800,207.638 248.800 C 207.397 248.800,207.200 249.008,207.200 249.263 C 207.200 249.517,205.920 250.974,204.354 252.499 C 199.947 256.794,203.452 259.524,168.561 224.620 L 138.453 194.501 138.183 197.018 C 138.035 198.402,137.978 201.672,138.057 204.285 L 138.200 209.035 140.300 211.102 C 141.455 212.239,142.400 213.356,142.400 213.584 C 142.400 213.813,142.582 214.000,142.805 214.000 C 143.273 214.000,152.800 223.487,152.800 223.953 C 152.800 224.125,153.250 224.506,153.800 224.800 C 154.350 225.094,154.800 225.547,154.800 225.806 C 154.800 226.064,155.160 226.602,155.600 227.000 C 156.740 228.032,156.875 299.108,155.739 300.051 C 155.196 300.502,150.272 300.619,128.186 300.708 C 101.161 300.817,99.200 300.729,99.200 299.410 C 99.200 299.074,99.011 298.800,98.781 298.800 C 98.215 298.800,88.800 289.410,88.800 288.846 C 88.800 288.601,88.604 288.400,88.364 288.400 C 88.124 288.400,86.684 287.149,85.164 285.619 L 82.400 282.839 82.400 192.508 C 82.400 111.400,82.464 102.087,83.023 101.289 L 83.645 100.400 110.096 100.400 C 135.755 100.400,136.596 100.424,138.174 101.201 M318.146 101.229 L 319.200 102.058 319.200 192.161 L 319.200 282.263 310.335 291.166 C 305.459 296.063,301.038 300.234,300.509 300.435 C 298.655 301.140,246.715 300.896,245.689 300.177 L 244.800 299.555 244.800 263.803 C 244.800 243.404,244.956 227.643,245.162 227.099 C 245.666 225.775,258.671 212.883,260.395 211.999 C 261.168 211.602,262.203 210.846,262.696 210.318 L 263.591 209.358 263.696 155.540 C 263.783 110.627,263.891 101.613,264.349 101.061 C 265.308 99.906,316.667 100.066,318.146 101.229 " stroke="none" fill="#fbfbfb" fill-rule="evenodd"></path><path id="path2" d="M83.600 102.000 C 82.804 102.796,82.801 103.267,82.899 192.100 L 82.998 281.400 83.100 192.231 C 83.194 110.102,83.254 103.004,83.860 102.334 C 84.481 101.647,85.934 101.600,109.559 101.500 L 134.600 101.394 109.500 101.297 C 84.867 101.202,84.385 101.215,83.600 102.000 M264.816 102.075 C 264.002 102.949,264.000 103.093,264.099 156.775 L 264.197 210.600 264.300 156.830 C 264.394 107.584,264.458 102.999,265.061 102.333 C 265.681 101.647,267.142 101.600,290.759 101.500 L 315.800 101.394 290.716 101.297 L 265.631 101.200 264.816 102.075 M137.400 102.166 C 138.060 102.460,152.190 116.307,168.800 132.937 C 185.410 149.568,199.485 163.378,200.078 163.627 C 201.070 164.043,201.260 163.957,202.478 162.543 C 203.205 161.699,204.512 160.376,205.383 159.604 C 206.254 158.832,207.604 157.489,208.383 156.619 C 210.047 154.763,210.942 153.858,212.819 152.128 C 213.579 151.429,220.590 144.454,228.400 136.629 C 240.929 124.076,242.659 122.482,243.100 123.077 C 243.491 123.606,243.621 133.310,243.698 167.776 L 243.796 211.800 243.902 168.000 C 244.007 124.818,243.938 122.000,242.777 122.000 C 242.598 122.000,234.655 129.816,225.125 139.368 C 215.596 148.921,207.552 156.976,207.248 157.268 C 206.944 157.561,205.414 159.081,203.848 160.647 C 201.381 163.113,200.877 163.448,200.083 163.153 C 199.578 162.966,185.580 149.225,168.976 132.617 C 139.803 103.437,137.872 101.582,136.726 101.616 C 136.437 101.624,136.740 101.872,137.400 102.166 M316.900 102.229 L 318.000 102.826 318.000 191.833 C 318.000 268.334,317.919 280.991,317.427 281.920 C 317.111 282.514,313.060 286.780,308.423 291.400 L 299.993 299.800 273.297 300.006 L 246.600 300.211 273.069 300.306 L 299.539 300.400 300.669 299.441 C 302.993 297.472,317.341 282.859,317.846 281.948 C 318.806 280.216,318.631 103.133,317.669 102.262 C 317.266 101.898,316.681 101.607,316.369 101.616 C 316.056 101.625,316.295 101.901,316.900 102.229 M137.834 193.673 C 137.302 194.432,137.215 195.772,137.290 201.989 L 137.380 209.400 137.489 202.200 C 137.650 191.626,136.311 191.252,151.002 205.975 C 157.912 212.901,163.648 218.484,163.748 218.383 C 163.848 218.283,158.201 212.478,151.199 205.484 C 138.590 192.891,138.461 192.777,137.834 193.673 M138.887 211.200 C 139.705 212.190,143.366 215.970,147.022 219.600 C 150.678 223.230,153.969 226.740,154.335 227.400 C 154.941 228.494,155.000 231.743,155.000 264.080 C 155.000 283.594,155.139 299.421,155.309 299.251 C 156.011 298.549,155.452 228.694,154.733 227.384 C 154.367 226.716,150.317 222.396,145.733 217.785 C 141.150 213.174,138.069 210.211,138.887 211.200 M261.800 212.165 C 259.183 213.366,245.597 226.777,245.601 228.154 C 245.602 228.399,245.938 228.060,246.348 227.400 C 248.009 224.723,260.591 212.895,262.331 212.373 C 263.249 212.098,264.000 211.722,264.000 211.537 C 264.000 211.122,264.185 211.069,261.800 212.165 M240.177 215.037 C 239.064 216.227,238.274 217.200,238.422 217.200 C 238.732 217.200,242.400 213.343,242.400 213.017 C 242.400 212.674,242.313 212.753,240.177 215.037 M221.132 234.200 C 211.986 243.330,204.614 250.800,204.751 250.799 C 204.888 250.799,212.464 243.329,221.587 234.199 C 230.710 225.070,238.082 217.600,237.968 217.600 C 237.854 217.600,230.278 225.070,221.132 234.200 M168.800 223.768 C 171.550 226.564,174.160 229.044,174.600 229.277 C 175.624 229.820,166.599 220.655,165.000 219.528 C 164.340 219.063,166.050 220.971,168.800 223.768 M175.200 230.110 C 175.200 230.171,176.588 231.566,178.285 233.210 C 179.982 234.855,181.020 235.750,180.593 235.200 C 178.989 233.136,175.200 229.560,175.200 230.110 M181.603 236.212 C 181.605 236.425,185.529 240.512,190.324 245.294 C 200.404 255.346,200.513 255.410,203.000 252.726 L 204.600 251.000 202.931 252.551 C 200.492 254.817,200.374 254.744,190.416 244.708 C 185.567 239.821,181.601 235.998,181.603 236.212 M83.232 282.017 C 83.214 282.356,84.055 283.436,85.100 284.417 L 87.000 286.200 85.348 284.400 C 84.439 283.410,83.599 282.330,83.480 282.000 C 83.291 281.478,83.259 281.480,83.232 282.017 M87.567 286.945 C 88.100 287.601,89.600 288.593,89.600 288.289 C 89.600 288.213,89.015 287.722,88.300 287.199 C 87.496 286.610,87.216 286.513,87.567 286.945 M90.600 290.002 C 91.260 290.767,91.928 291.452,92.085 291.524 C 92.241 291.597,94.213 293.534,96.466 295.828 C 98.718 298.123,100.688 300.000,100.844 300.000 C 100.999 300.000,98.917 297.795,96.218 295.100 C 90.792 289.683,88.633 287.724,90.600 290.002 M114.929 300.300 C 122.150 300.361,133.850 300.361,140.929 300.300 C 148.008 300.239,142.100 300.189,127.800 300.189 C 113.500 300.189,107.708 300.239,114.929 300.300 " stroke="none" fill="#8c8c8c" fill-rule="evenodd"></path><path id="path3" d="M83.859 102.334 C 83.243 103.015,83.202 109.631,83.297 192.724 L 83.400 282.380 92.281 291.190 L 101.163 300.000 127.505 300.000 C 147.972 300.000,154.000 299.888,154.532 299.499 C 155.568 298.742,155.378 229.281,154.334 227.400 C 153.968 226.740,150.762 223.320,147.208 219.800 C 143.655 216.280,139.950 212.438,138.974 211.263 L 137.200 209.127 137.200 201.852 C 137.200 190.199,133.270 187.554,168.884 223.184 C 186.726 241.035,199.695 253.709,200.266 253.852 C 201.128 254.069,203.626 251.711,222.409 232.948 L 243.579 211.800 243.590 167.776 C 243.598 133.171,243.493 123.608,243.100 123.077 C 242.659 122.482,240.929 124.076,228.400 136.629 C 220.590 144.454,213.579 151.429,212.819 152.128 C 210.942 153.858,210.047 154.763,208.383 156.619 C 207.604 157.489,206.254 158.832,205.383 159.604 C 204.512 160.376,203.205 161.699,202.478 162.543 C 201.260 163.957,201.070 164.043,200.078 163.627 C 199.485 163.378,185.410 149.568,168.800 132.937 C 150.997 115.111,138.072 102.473,137.313 102.149 C 135.040 101.179,84.747 101.353,83.859 102.334 M265.062 102.331 C 264.453 103.004,264.400 107.322,264.400 156.281 C 264.400 215.623,264.547 211.709,262.289 212.386 C 260.541 212.910,247.324 225.444,246.162 227.680 C 245.394 229.157,245.315 298.755,246.080 299.520 C 246.444 299.884,253.004 300.000,273.159 300.000 L 299.757 300.000 308.309 291.500 C 313.012 286.825,317.117 282.514,317.430 281.920 C 317.918 280.995,318.000 268.082,318.000 191.830 L 318.000 102.821 316.820 102.210 C 314.839 101.186,265.995 101.301,265.062 102.331 M167.931 133.336 C 184.837 150.241,198.923 164.233,199.234 164.430 C 200.709 165.363,201.570 164.667,212.419 153.772 C 218.458 147.706,223.631 142.531,223.914 142.272 C 224.197 142.012,225.547 140.654,226.914 139.253 C 228.281 137.853,230.111 136.053,230.980 135.253 C 231.849 134.454,233.289 133.008,234.180 132.039 C 235.071 131.071,236.507 129.631,237.371 128.839 C 238.235 128.048,239.800 126.537,240.849 125.482 L 242.757 123.563 242.994 124.882 C 243.124 125.607,243.179 145.308,243.115 168.662 L 243.000 211.123 241.900 212.142 C 241.295 212.703,240.800 213.350,240.800 213.581 C 240.800 213.811,240.575 214.008,240.300 214.018 C 240.025 214.029,239.170 214.755,238.400 215.632 C 237.630 216.510,236.296 217.897,235.435 218.714 C 234.574 219.531,233.082 221.010,232.120 222.000 C 231.158 222.990,230.214 223.952,230.023 224.138 C 229.572 224.578,224.613 229.537,224.023 230.138 C 223.774 230.392,222.812 231.336,221.885 232.235 C 220.958 233.134,219.533 234.574,218.718 235.435 C 217.903 236.296,216.508 237.628,215.618 238.397 C 214.728 239.165,214.000 239.915,214.000 240.065 C 214.000 240.315,213.411 240.917,209.100 245.073 C 208.275 245.868,207.600 246.672,207.600 246.859 C 207.600 247.047,207.326 247.200,206.991 247.200 C 206.657 247.200,206.178 247.650,205.927 248.200 C 205.677 248.750,205.320 249.200,205.134 249.200 C 204.948 249.200,203.926 250.089,202.862 251.175 L 200.929 253.150 199.764 252.431 C 199.124 252.036,185.085 238.182,168.567 221.643 C 137.169 190.208,137.685 190.672,136.769 193.081 C 136.298 194.321,136.303 207.302,136.776 209.339 C 137.071 210.610,138.498 212.250,144.954 218.739 C 149.255 223.063,153.044 226.960,153.374 227.400 C 154.312 228.650,154.305 298.997,153.367 299.357 C 152.544 299.673,103.675 299.675,102.096 299.359 C 101.359 299.212,100.721 298.746,100.454 298.159 C 100.214 297.632,99.743 297.200,99.409 297.200 C 99.074 297.200,98.800 297.057,98.800 296.882 C 98.800 296.382,95.876 293.386,95.100 293.091 C 94.715 292.945,94.400 292.580,94.400 292.280 C 94.400 291.980,93.950 291.494,93.400 291.200 C 92.850 290.906,92.400 290.515,92.400 290.332 C 92.400 290.150,91.694 289.325,90.830 288.500 C 88.280 286.063,86.273 284.058,85.100 282.772 L 84.000 281.567 84.000 192.250 C 84.000 143.126,84.124 102.810,84.275 102.658 C 84.426 102.507,96.395 102.432,110.871 102.492 L 137.193 102.600 167.931 133.336 M315.900 102.652 L 316.800 102.893 316.800 191.821 C 316.800 242.678,316.648 281.144,316.445 281.674 C 316.249 282.183,312.265 286.426,307.590 291.103 L 299.090 299.606 272.845 299.503 L 246.600 299.400 246.498 263.762 L 246.396 228.123 252.898 221.683 C 260.310 214.342,261.099 213.674,262.966 213.158 C 265.064 212.579,264.994 214.411,265.102 157.400 C 265.158 127.700,265.287 103.175,265.389 102.900 C 265.585 102.373,313.972 102.135,315.900 102.652 " stroke="none" fill="#747474" fill-rule="evenodd"></path><path id="path4" d="M83.023 101.289 C 82.464 102.087,82.400 111.400,82.400 192.508 L 82.400 282.839 85.164 285.619 C 86.684 287.149,88.124 288.400,88.364 288.400 C 88.604 288.400,88.800 288.601,88.800 288.846 C 88.800 289.410,98.215 298.800,98.781 298.800 C 99.011 298.800,99.200 299.074,99.200 299.410 C 99.200 300.729,101.161 300.817,128.186 300.708 C 150.272 300.619,155.196 300.502,155.739 300.051 C 156.875 299.108,156.740 228.032,155.600 227.000 C 155.160 226.602,154.800 226.064,154.800 225.806 C 154.800 225.547,154.350 225.094,153.800 224.800 C 153.250 224.506,152.800 224.125,152.800 223.953 C 152.800 223.487,143.273 214.000,142.805 214.000 C 142.582 214.000,142.400 213.813,142.400 213.584 C 142.400 213.356,141.455 212.239,140.300 211.102 L 138.200 209.035 138.057 204.285 C 137.978 201.672,138.035 198.402,138.183 197.018 L 138.453 194.501 168.561 224.620 C 203.452 259.524,199.947 256.794,204.354 252.499 C 205.920 250.974,207.200 249.517,207.200 249.263 C 207.200 249.008,207.397 248.800,207.638 248.800 C 208.218 248.800,217.585 239.529,217.593 238.947 C 217.597 238.697,217.973 238.396,218.430 238.276 C 218.886 238.157,219.357 237.686,219.476 237.230 C 219.596 236.773,219.870 236.400,220.086 236.400 C 220.606 236.400,236.400 220.615,236.400 220.096 C 236.400 219.874,236.773 219.596,237.230 219.476 C 237.686 219.357,238.157 218.886,238.276 218.430 C 238.396 217.973,238.719 217.600,238.995 217.600 C 239.271 217.600,240.600 216.398,241.948 214.928 L 244.400 212.256 244.400 167.417 C 244.400 120.299,244.417 120.800,242.776 120.800 C 242.568 120.800,233.082 130.115,221.696 141.500 C 203.327 159.868,200.871 162.186,199.897 162.073 C 199.294 162.004,198.800 161.780,198.800 161.576 C 198.800 161.372,198.009 160.439,197.042 159.502 C 196.075 158.566,194.590 157.128,193.742 156.306 C 192.894 155.484,191.572 154.089,190.803 153.206 C 190.035 152.323,189.264 151.600,189.090 151.600 C 188.677 151.600,186.000 148.923,186.000 148.510 C 186.000 148.336,185.272 147.565,184.382 146.797 C 183.492 146.028,182.097 144.696,181.282 143.835 C 180.037 142.520,177.351 139.855,175.949 138.543 C 175.747 138.354,174.448 136.985,173.061 135.500 C 171.674 134.015,170.357 132.800,170.134 132.800 C 169.911 132.800,169.530 132.366,169.289 131.835 C 169.047 131.304,168.478 130.752,168.024 130.608 C 167.571 130.464,167.200 130.173,167.200 129.961 C 167.200 129.750,165.985 128.409,164.500 126.982 C 163.015 125.555,161.646 124.229,161.457 124.036 C 161.269 123.843,160.353 122.901,159.423 121.943 C 158.492 120.984,157.026 119.544,156.165 118.742 C 155.304 117.941,153.972 116.546,153.203 115.642 C 152.435 114.739,151.592 114.000,151.330 114.000 C 151.068 114.000,150.743 113.649,150.606 113.220 C 150.470 112.792,150.008 112.330,149.580 112.194 C 149.151 112.057,148.800 111.779,148.800 111.575 C 148.800 111.371,148.009 110.439,147.042 109.502 C 146.075 108.566,144.590 107.126,143.742 106.303 C 142.894 105.479,141.660 104.175,141.000 103.404 C 138.302 100.254,139.806 100.400,110.096 100.400 L 83.645 100.400 83.023 101.289 M264.349 101.061 C 263.891 101.613,263.783 110.627,263.696 155.540 L 263.591 209.358 262.696 210.318 C 262.203 210.846,261.168 211.602,260.395 211.999 C 258.671 212.883,245.666 225.775,245.162 227.099 C 244.956 227.643,244.800 243.404,244.800 263.803 L 244.800 299.555 245.689 300.177 C 246.715 300.896,298.655 301.140,300.509 300.435 C 301.038 300.234,305.459 296.063,310.335 291.166 L 319.200 282.263 319.200 192.161 L 319.200 102.058 318.146 101.229 C 316.667 100.066,265.308 99.906,264.349 101.061 M137.893 101.910 C 138.385 102.191,152.372 116.009,168.976 132.617 C 185.580 149.225,199.578 162.966,200.083 163.153 C 200.877 163.448,201.381 163.113,203.848 160.647 C 205.414 159.081,206.944 157.561,207.248 157.268 C 207.552 156.976,215.596 148.921,225.125 139.368 C 234.655 129.816,242.591 122.000,242.761 122.000 C 243.930 122.000,244.000 124.586,244.000 167.886 L 244.000 211.735 222.700 233.088 C 202.486 253.352,201.339 254.430,200.211 254.213 C 199.301 254.038,191.911 246.872,168.736 223.692 C 142.714 197.664,138.391 193.498,138.025 194.095 C 137.765 194.519,137.600 197.662,137.600 202.187 L 137.600 209.585 145.833 217.877 C 150.362 222.438,154.367 226.716,154.733 227.384 C 155.339 228.489,155.410 231.834,155.508 263.885 L 155.617 299.171 154.407 299.797 C 153.338 300.349,150.126 300.409,126.990 300.311 L 100.784 300.200 96.572 296.000 C 94.255 293.690,91.784 291.186,91.080 290.435 C 90.376 289.684,88.270 287.577,86.400 285.753 L 83.000 282.435 82.897 192.621 L 82.793 102.807 83.618 101.982 C 84.641 100.959,136.109 100.891,137.893 101.910 M317.558 102.162 L 318.400 102.924 318.386 191.962 C 318.374 264.724,318.276 281.173,317.846 281.948 C 317.341 282.859,302.993 297.472,300.669 299.441 L 299.539 300.400 273.343 300.400 C 256.051 300.400,246.884 300.259,246.374 299.986 C 245.175 299.344,245.159 228.264,246.357 226.754 C 249.289 223.059,259.997 212.996,261.900 212.147 L 264.000 211.210 264.000 157.080 L 264.000 102.951 264.826 102.064 L 265.652 101.177 291.184 101.289 C 315.646 101.395,316.752 101.432,317.558 102.162 " stroke="none" fill="#ababab" fill-rule="evenodd"></path></g></svg>